<svg width="17" height="17" viewBox="0 0 17 17" fill="none" xmlns="http://www.w3.org/2000/svg">
<path fill-rule="evenodd" clip-rule="evenodd" d="M17 8.5C17 10.7543 16.1045 12.9163 14.5104 14.5104C12.9163 16.1045 10.7543 17 8.5 17C6.24566 17 4.08365 16.1045 2.48959 14.5104C0.895533 12.9163 0 10.7543 0 8.5C0 6.24566 0.895533 4.08365 2.48959 2.48959C4.08365 0.895533 6.24566 0 8.5 0C10.7543 0 12.9163 0.895533 14.5104 2.48959C16.1045 4.08365 17 6.24566 17 8.5ZM9.5625 12.75C9.5625 13.0318 9.45056 13.302 9.2513 13.5013C9.05204 13.7006 8.78179 13.8125 8.5 13.8125C8.21821 13.8125 7.94796 13.7006 7.7487 13.5013C7.54944 13.302 7.4375 13.0318 7.4375 12.75C7.4375 12.4682 7.54944 12.198 7.7487 11.9987C7.94796 11.7994 8.21821 11.6875 8.5 11.6875C8.78179 11.6875 9.05204 11.7994 9.2513 11.9987C9.45056 12.198 9.5625 12.4682 9.5625 12.75ZM8.5 3.1875C8.21821 3.1875 7.94796 3.29944 7.7487 3.4987C7.54944 3.69796 7.4375 3.96821 7.4375 4.25V8.5C7.4375 8.78179 7.54944 9.05204 7.7487 9.2513C7.94796 9.45056 8.21821 9.5625 8.5 9.5625C8.78179 9.5625 9.05204 9.45056 9.2513 9.2513C9.45056 9.05204 9.5625 8.78179 9.5625 8.5V4.25C9.5625 3.96821 9.45056 3.69796 9.2513 3.4987C9.05204 3.29944 8.78179 3.1875 8.5 3.1875Z" fill="#133E71"/>
</svg>
